<svg xmlns="http://www.w3.org/2000/svg"  viewBox="0 0 40 40" width="16px" height="16px"><path fill="#8bb7f0" d="M33.66,9.49C30.42,6.92,25.5,6.5,25.5,6.5s-0.62,1.33-1.06,2.39C22.5,8.56,20.86,8.5,20,8.5	s-2.5,0.06-4.44,0.39C15.12,7.83,14.5,6.5,14.5,6.5S9.58,6.92,6.34,9.49C4.77,10.92,1.5,20.41,1.5,28.5c2.19,3.8,8.35,4.95,10,5	l2.39-3.63c1.69,0.37,3.72,0.63,6.11,0.63s4.42-0.26,6.11-0.63l2.39,3.63c1.65-0.05,7.81-1.33,10-5.12	C38.5,20.28,35.23,10.92,33.66,9.49z M14.5,24.5c-1.657,0-3-1.713-3-3.826c0-2.113,1.343-3.826,3-3.826s3,1.713,3,3.826	C17.5,22.787,16.157,24.5,14.5,24.5z M25.5,24.5c-1.657,0-3-1.709-3-3.818s1.343-3.818,3-3.818s3,1.709,3,3.818	S27.157,24.5,25.5,24.5z"/><path fill="#4e7ab5" d="M28.228,34.009l-2.402-3.87l0.85-0.527l2.093,3.372c2.013-0.168,7.254-1.487,9.232-4.745	c-0.037-8.045-3.328-17.146-4.677-18.377c-2.577-2.044-6.381-2.675-7.527-2.825c-0.177,0.375-0.479,1.037-0.74,1.729L24.12,8.412	c0.416-1.1,0.912-2.094,0.933-2.136l0.152-0.304l0.338,0.029c0.207,0.018,5.113,0.467,8.428,3.099	C35.666,10.646,39,20.039,39,28.375v0.134l-0.066,0.116c-2.259,3.921-8.427,5.313-10.418,5.375L28.228,34.009z"/><path fill="#4e7ab5" d="M14.5,25c-1.93,0-3.5-2.021-3.5-4.506s1.57-4.506,3.5-4.506s3.5,2.021,3.5,4.506S16.43,25,14.5,25z M14.506,17.002c-1.379,0-2.506,1.629-2.506,3.492s1.114,3.511,2.493,3.511S17,22.357,17,20.494S15.885,17.002,14.506,17.002z"/><path fill="#4e7ab5" d="M25.499,25.011c-1.93,0-3.5-2.029-3.5-4.524s1.576-4.484,3.506-4.484s3.494,1.989,3.494,4.484	S27.429,25.011,25.499,25.011z M25.505,17.005c-1.379,0-2.506,1.61-2.506,3.481c0,1.871,1.128,3.515,2.507,3.515	s2.493-1.644,2.493-3.515C27.999,18.616,26.884,17.005,25.505,17.005z"/><path fill="#4e7ab5" d="M11.768,34.009L11.484,34C9.99,33.953,3.44,32.87,1.066,28.75L1,28.634V28.5	c0-8.105,3.313-17.834,5.004-19.376c3.34-2.655,8.246-3.104,8.453-3.122l0.338-0.029l0.152,0.304	c0.021,0.042,0.517,1.036,0.933,2.136l-0.936,0.354c-0.262-0.692-0.563-1.354-0.74-1.728C13.057,7.187,9.25,7.821,6.651,9.884	C5.329,11.093,2.037,20.247,2,28.364c1.955,3.214,7.162,4.462,9.237,4.621l2.092-3.255l0.842,0.541L11.768,34.009z"/><path fill="#4e7ab5" d="M11.541,28.723c1.988,0.66,4.828,1.278,8.39,1.278c3.684,0,6.53-0.635,8.53-1.322l0.46,0.913	c-2.091,0.732-5.081,1.409-8.991,1.409c-3.754,0-6.778-0.662-8.855-1.36L11.541,28.723z"/><path fill="#4e7ab5" d="M14.855,8.513C17.343,8.04,19.389,8,20,8c0.612,0,2.664,0.04,5.158,0.515l-0.234,0.971	C22.545,9.038,20.586,9,20,9c-0.579,0-2.499,0.037-4.84,0.471L14.855,8.513z"/></svg>